#include "music.h";

Note notes[] = {
  {NOTE_D4, 8},
  {NOTE_B4, 8},
  {NOTE_A4, 8},
  {NOTE_G4, 8},
  {NOTE_D4, 2},

  {NOTE_D4, 16},
  {NOTE_D4, 16},
  {NOTE_B4, 8},
  {NOTE_A4, 8},
  {NOTE_G4, 8},
  {NOTE_E4, 2},

  {NOTE_E4, 8},
  {NOTE_C5, 8},
  {NOTE_B4, 8},
  {NOTE_A4, 8},
  {NOTE_FS4, 2},

  {NOTE_D5, 8},
  {NOTE_D5, 8},
  {NOTE_C5, 8},
  {NOTE_A4, 8},
  {NOTE_B4, 2},

  {NOTE_D4, 8},
  {NOTE_B4, 8},
  {NOTE_A4, 8},
  {NOTE_G4, 8},
  {NOTE_D4, 2},

  {NOTE_D4, 8},
  {NOTE_B4, 8},
  {NOTE_A4, 8},
  {NOTE_G4, 8},
  {NOTE_E4, 2},

  {NOTE_E4, 8},
  {NOTE_C5, 8},
  {NOTE_B4, 8},
  {NOTE_A4, 8},
  {NOTE_D5, 8},
  {NOTE_D5, 8},
  {NOTE_D5, 8},
  {NOTE_D5, 8},

  {NOTE_E5, 8},
  {NOTE_D5, 8},
  {NOTE_C5, 8},
  {NOTE_A4, 8},
  {NOTE_G4, 4},
  {NOTE_D5, 4},

  {NOTE_B4, 8},
  {NOTE_B4, 8},
  {NOTE_B4, 4},
  {NOTE_B4, 8},
  {NOTE_B4, 8},
  {NOTE_B4, 4},

  {NOTE_B4, 8},
  {NOTE_D5, 8},
  {NOTE_G4, 8},
  {NOTE_A4, 8},
  {NOTE_B4, 2},

  {NOTE_C5, 8},
  {NOTE_C5, 8},
  {NOTE_C5, 8},
  {NOTE_C5, 8},
  {NOTE_C5, 8},
  {NOTE_B4, 8},
  {NOTE_B4, 8},
  {NOTE_B4, 8},

  {NOTE_B4, 8},
  {NOTE_A4, 8},
  {NOTE_A4, 8},
  {NOTE_B4, 8},
  {NOTE_A4, 4},
  {NOTE_D5, 4},

  {NOTE_B4, 8},
  {NOTE_B4, 8},
  {NOTE_B4, 4},
  {NOTE_B4, 8},
  {NOTE_B4, 8},
  {NOTE_B4, 4},

  {NOTE_B4, 8},
  {NOTE_D5, 8},
  {NOTE_G4, 8},
  {NOTE_A4, 8},
  {NOTE_B4, 2},

  {NOTE_C5, 8},
  {NOTE_C5, 8},
  {NOTE_C5, 8},
  {NOTE_C5, 8},
  {NOTE_C5, 8},
  {NOTE_B4, 8},
  {NOTE_B4, 8},
  {NOTE_B4, 8},

  {NOTE_D5, 8},
  {NOTE_D5, 8},
  {NOTE_C5, 8},
  {NOTE_A4, 8},
  {NOTE_G4, 2},
};
